<svg width="89" height="117" viewBox="0 0 89 117" fill="none" xmlns="http://www.w3.org/2000/svg">
<path d="M44.8532 74.1011L6.20033 49.9429L44.8532 25.7848L83.506 49.9429L44.8532 74.1011Z" fill="#114B5F" stroke="#114B5F" stroke-width="4"/>
<path d="M44.8532 62.1011L6.20033 37.9429L44.8532 13.7848L83.506 37.9429L44.8532 62.1011Z" fill="#2A9D8F" stroke="#2A9D8F" stroke-width="4"/>
<path d="M83.0792 26.5167L77.1008 30.2532L74.4116 31.934L77.087 33.6365L80.6319 35.8924L68.6517 35.8924L68.0781 35.8924L67.5917 36.1964L44.4264 50.6748L5.77358 26.5167L44.4264 2.3585L83.0792 26.5167Z" fill="#031014" stroke="#031014" stroke-width="4"/>
<path d="M22.3848 28.2948L47.8406 12.3848M28.0416 31.8303L53.4975 15.9203M33.6985 35.3659L59.1543 19.4559M39.3553 38.9014L52.7904 30.5045" stroke="white" stroke-width="3"/>
<path d="M19.4365 109.09H15.042L6.4873 95.0571V109.09H2.09277V87.7622H6.4873L15.0566 101.825V87.7622H19.4365V109.09ZM35.5791 104.696H27.874L26.4092 109.09H21.7363L29.6758 87.7622H33.748L41.7314 109.09H37.0586L35.5791 104.696ZM29.0605 101.136H34.3926L31.7119 93.1528L29.0605 101.136ZM49.4658 87.7622L54.9443 103.231L60.3936 87.7622H66.165V109.09H61.7559V103.26L62.1953 93.1968L56.4385 109.09H53.4209L47.6787 93.2114L48.1182 103.26V109.09H43.7236V87.7622H49.4658ZM87.5225 98.9097C87.5225 101.009 87.1514 102.85 86.4092 104.432C85.667 106.014 84.6025 107.235 83.2158 108.094C81.8389 108.954 80.2568 109.383 78.4697 109.383C76.7021 109.383 75.125 108.958 73.7383 108.109C72.3516 107.259 71.2773 106.048 70.5156 104.476C69.7539 102.894 69.3682 101.078 69.3584 99.0269V97.9722C69.3584 95.8726 69.7344 94.0269 70.4863 92.4351C71.248 90.8335 72.3174 89.6079 73.6943 88.7583C75.0811 87.8989 76.6631 87.4692 78.4404 87.4692C80.2178 87.4692 81.7949 87.8989 83.1719 88.7583C84.5586 89.6079 85.6279 90.8335 86.3799 92.4351C87.1416 94.0269 87.5225 95.8677 87.5225 97.9575V98.9097ZM83.0693 97.9429C83.0693 95.7065 82.6689 94.0073 81.8682 92.8452C81.0674 91.6831 79.9248 91.1021 78.4404 91.1021C76.9658 91.1021 75.8281 91.6782 75.0273 92.8306C74.2266 93.9731 73.8213 95.6528 73.8115 97.8696V98.9097C73.8115 101.087 74.2119 102.777 75.0127 103.978C75.8135 105.179 76.9658 105.78 78.4697 105.78C79.9443 105.78 81.0771 105.204 81.8682 104.051C82.6592 102.889 83.0596 101.2 83.0693 98.9829V97.9429Z" fill="#031014"/>
</svg>
